<svg version="1.2" xmlns="http://www.w3.org/2000/svg" viewBox="0 0 1280 720" width="1280" height="720">
	<style>
		<!-- .s0 { fill: #cb2329 }  -->
		.s0 { fill: #228be6 } 
	</style>
	<path id="Angelos" class="s0" aria-label="Angelos"  d="m223.7 453.8l-66-201.6-65.7 201.6v-0.3q-1.8 4.5-5.1 7.5-3 2.7-7.5 2.7-2.4 0-4.8-0.3-2.1-0.6-4.5-1.2h0.3q-17.1-5.4-12.6-19.2l68.4-207.9q1.5-4.8 5.1-8.1 3.9-3.3 9-3.9 5.1-0.9 9.9-1.2 4.8-0.6 7.5-0.6 2.7 0 7.5 0.6 4.8 0.3 9.9 0.9 4.2 0.6 8.1 4.5 4.2 3.9 6.3 7.8 16.8 51.6 33.9 104.1 17.4 52.2 34.2 103.8 4.2 13.8-12.6 19.2-2.4 0.6-4.5 1.2-1.8 0.3-4.2 0.3-4.2 0-7.8-2.7-3.3-3-4.8-7.5zm-43.5-64.8q0 9.6-6.9 16.5-6.6 6.6-16.2 6.6-9.6 0-16.2-6.6-6.6-6.9-6.6-16.5 0-9.6 6.6-16.2 6.6-6.9 16.2-6.9 9.6 0 16.2 6.9 6.9 6.6 6.9 16.2zm134.7-58.5v117.9q0 14.4-16.5 14.4-16.5 0-16.5-14.4v-120.6q0-12.3 3.9-21.3 3.9-9 12.3-14.7 15.9-11.4 31.8-11.4h48.3q15.3 0 31.8 11.4 16.2 11.4 16.2 36v120.6q0 14.4-16.5 14.4-16.5 0-16.5-14.4v-117.9q0-7.8-4.8-15l0.3 0.3q-3.9-7.2-15.9-7.2h-37.5q-12.3 0-16.2 7.2-4.2 6.3-4.2 14.7zm234.6 109.5h-36.3q-7.8 0-16.2-2.7-8.1-2.7-15.9-7.8-16.2-10.5-16.2-35.4v-67.8q0-12.6 4.2-21.6 4.5-9 12-14.1 7.8-4.8 15.9-7.5 8.1-2.7 15.9-2.7h50.4q7.5 0 15.6 3.3 8.1 3.3 15 8.4 6.9 5.7 11.1 15 4.2 9.3 4.2 21v127.2q0 12.6-4.2 21.6-3.9 8.7-11.1 14.7-6.9 5.7-15 9-7.8 3-15.6 3h-50.4q-15.9 0-32.1-9.3-8.4-4.8-12.3-12.3-3.6-7.5-3.6-17.4v-3.6q0-6 3.9-9.6 3.9-3.6 12.3-3.6 16.8 1.8 16.8 13.2v3.3q0 3.3 4.5 7.2 4.8 3.9 15.9 3.9h37.5q11.1 0 15.6-6.3 4.8-6.3 4.8-14.1v-126.6q0-7.5-4.8-13.5-4.5-6.3-15.6-6.3h-37.5q-11.1 0-15.9 6.3-4.5 6-4.5 13.5v63.3q0 7.5 4.5 14.1 4.8 6.3 15.9 6.3h31.2q10.8 0 10.8 13.8 0 6.3-2.7 10.2-2.4 3.9-8.1 3.9zm132.9-111.9v84.9q0 7.2 4.5 13.5 4.8 6.3 15.9 6.3h37.5q11.1 0 15.6-5.4 4.8-5.7 4.8-12.9v-3.3q0-14.1 16.5-14.1 16.5 0 16.5 14.1v3.6q0 12.6-4.2 20.7-3.9 8.1-12 14.1-15.9 11.4-31.8 11.4h-50.4q-15.9 0-30.9-11.4-7.2-6-11.1-15-3.9-9.3-3.9-21.3v-85.5q0-24.3 15-36 7.5-5.4 15.3-8.4 8.1-3.3 15.6-3.3h50.4q7.2 0 15.9 3 8.7 2.7 16.2 7.5 7.2 5.1 11.4 14.1 4.5 9 4.5 21.3v40.5q0 6.9-4.2 12.3-3.9 5.4-14.7 5.4h-64.8q-10.8 0-11.4-14.1 0-14.1 11.4-14.1h51l-0.3-27.9q0-7.5-4.8-13.5-4.5-6.3-15.6-6.3h-37.5q-11.1 0-15.9 6.3-4.5 6-4.5 13.5zm183.6-93.9v215.1q0 14.1-16.5 14.1-16.8 0-16.8-14.1v-215.1q0-14.1 16.8-14.1 16.5 0 16.5 14.1zm89.4 46.2h48q7.8 0 15.9 3.3 8.4 3.3 16.2 8.4h-0.3q7.8 5.7 12 15 4.2 9 4.2 21v85.2q0 24.6-16.2 36.3-15.9 11.4-31.8 11.4h-48q-7.8 0-15.9-2.7-8.1-2.7-15.9-8.7-16.2-11.4-16.2-36.3v-85.2q0-12 4.2-21 4.2-9.3 12-15h-0.3q7.5-5.1 15.9-8.4 8.4-3.3 16.2-3.3zm5.4 152.4h37.2q11.1 0 15.6-6.3 4.8-6.3 4.8-13.5v-84.6q0-7.5-4.8-13.5-4.5-6.3-15.6-6.3h-37.2q-11.1 0-15.9 6.3-4.5 6-4.5 13.5v84.6q0 7.2 4.5 13.5 4.8 6.3 15.9 6.3zm181.8-76.8h44.1q7.5 0 15.9 3.6 8.7 3.3 16.2 8.4h-0.3q7.8 5.7 12 14.7 4.2 9 4.2 21.6v9q0 24.6-16.2 36.3-7.8 6-15.9 8.7-8.1 2.7-15.9 2.7h-51q-7.8 0-15.9-2.7-8.1-2.7-15.9-8.7-16.2-11.4-16.2-36.3v-3.6q0-12.9 16.5-12.6 16.8 0 16.8 12.6v3.3q0 7.2 4.5 13.5 4.5 6.3 15.9 6.3h39.6q11.4 0 15.9-6.3 4.5-6.3 4.5-13.5v-8.4q0-3.9-1.2-7.5-0.9-3.6-3.3-6.3-2.4-3-6.3-4.8-3.9-1.8-9.6-1.8h-43.8q-15.3 0-32.1-10.8-15.9-10.2-15.9-35.1v-10.2q0-12 4.2-21 4.2-9.3 12-15h-0.3q7.5-5.1 15.9-8.4 8.4-3.3 16.2-3.3h48q7.8 0 15.9 3.3 8.4 3.3 16.2 8.4h-0.3q7.8 5.7 12 15 4.2 9 4.2 21v2.7q0 6.3-4.2 9.3-4.2 2.7-12.3 3-16.5 0.3-16.5-12.3v-2.4q0-7.5-4.8-13.5-4.5-6.3-15.6-6.3h-37.2q-11.1 0-15.9 6.3-4.5 6-4.5 13.5v7.2q0 7.8 4.5 14.1 4.8 6.3 15.9 6.3z"/>
</svg>